<mxfile host="app.diagrams.net" modified="2023-10-10T03:24:13.111Z" agent="Mozilla/5.0 (X11; Linux x86_64) AppleWebKit/537.36 (KHTML, like Gecko) Chrome/109.0.0.0 Safari/537.36" etag="i-KKwq3Qrs7l57-Oiqvl" version="22.0.4" type="github">
  <diagram name="Page-1" id="YAsuCoHC8SSSe0b68Fao">
    <mxGraphModel dx="1054" dy="566" grid="1" gridSize="10" guides="1" tooltips="1" connect="1" arrows="1" fold="1" page="1" pageScale="1" pageWidth="827" pageHeight="1169" math="0" shadow="0">
      <root>
        <mxCell id="0" />
        <mxCell id="1" parent="0" />
        <mxCell id="o5Xl_phNg1nPOExyWUmS-2" value="" style="rounded=0;whiteSpace=wrap;html=1;" vertex="1" parent="1">
          <mxGeometry x="281" y="70" width="266" height="460" as="geometry" />
        </mxCell>
        <mxCell id="o5Xl_phNg1nPOExyWUmS-6" value="Anggota" style="shape=umlActor;verticalLabelPosition=bottom;verticalAlign=top;html=1;outlineConnect=0;" vertex="1" parent="1">
          <mxGeometry x="70" y="190" width="100" height="200" as="geometry" />
        </mxCell>
        <mxCell id="o5Xl_phNg1nPOExyWUmS-7" value="Pustakawan" style="shape=umlActor;verticalLabelPosition=bottom;verticalAlign=top;html=1;outlineConnect=0;" vertex="1" parent="1">
          <mxGeometry x="670" y="190" width="100" height="200" as="geometry" />
        </mxCell>
        <mxCell id="o5Xl_phNg1nPOExyWUmS-8" value="Perpus Digital:&lt;br style=&quot;font-size: 15px;&quot;&gt;Book Search Tool" style="text;html=1;strokeColor=none;fillColor=none;align=center;verticalAlign=middle;whiteSpace=wrap;rounded=0;fontSize=15;" vertex="1" parent="1">
          <mxGeometry x="329.5" y="80" width="169" height="30" as="geometry" />
        </mxCell>
        <mxCell id="o5Xl_phNg1nPOExyWUmS-9" value="Isi Data Buku" style="ellipse;whiteSpace=wrap;html=1;" vertex="1" parent="1">
          <mxGeometry x="329" y="160" width="180" height="60" as="geometry" />
        </mxCell>
        <mxCell id="o5Xl_phNg1nPOExyWUmS-11" value="Isi Data Kelompok Buku" style="ellipse;whiteSpace=wrap;html=1;" vertex="1" parent="1">
          <mxGeometry x="329" y="330" width="180" height="60" as="geometry" />
        </mxCell>
        <mxCell id="o5Xl_phNg1nPOExyWUmS-12" value="Pencarian Buku" style="ellipse;whiteSpace=wrap;html=1;" vertex="1" parent="1">
          <mxGeometry x="329" y="420" width="180" height="60" as="geometry" />
        </mxCell>
        <mxCell id="o5Xl_phNg1nPOExyWUmS-13" value="" style="endArrow=none;html=1;rounded=0;exitX=1;exitY=0.3333333333333333;exitDx=0;exitDy=0;exitPerimeter=0;entryX=0.006;entryY=0.4;entryDx=0;entryDy=0;entryPerimeter=0;" edge="1" parent="1" source="o5Xl_phNg1nPOExyWUmS-6" target="o5Xl_phNg1nPOExyWUmS-12">
          <mxGeometry width="50" height="50" relative="1" as="geometry">
            <mxPoint x="380" y="320" as="sourcePoint" />
            <mxPoint x="430" y="270" as="targetPoint" />
          </mxGeometry>
        </mxCell>
        <mxCell id="o5Xl_phNg1nPOExyWUmS-14" value="" style="endArrow=none;html=1;rounded=0;exitX=1;exitY=0.5;exitDx=0;exitDy=0;entryX=0;entryY=0.3333333333333333;entryDx=0;entryDy=0;entryPerimeter=0;" edge="1" parent="1" source="o5Xl_phNg1nPOExyWUmS-9" target="o5Xl_phNg1nPOExyWUmS-7">
          <mxGeometry width="50" height="50" relative="1" as="geometry">
            <mxPoint x="620" y="310" as="sourcePoint" />
            <mxPoint x="670" y="260" as="targetPoint" />
          </mxGeometry>
        </mxCell>
        <mxCell id="o5Xl_phNg1nPOExyWUmS-15" value="" style="endArrow=none;html=1;rounded=0;" edge="1" parent="1" source="o5Xl_phNg1nPOExyWUmS-10">
          <mxGeometry width="50" height="50" relative="1" as="geometry">
            <mxPoint x="380" y="320" as="sourcePoint" />
            <mxPoint x="430" y="270" as="targetPoint" />
          </mxGeometry>
        </mxCell>
        <mxCell id="o5Xl_phNg1nPOExyWUmS-16" value="" style="endArrow=none;html=1;rounded=0;exitX=0;exitY=0.3333333333333333;exitDx=0;exitDy=0;exitPerimeter=0;" edge="1" parent="1" source="o5Xl_phNg1nPOExyWUmS-7" target="o5Xl_phNg1nPOExyWUmS-10">
          <mxGeometry width="50" height="50" relative="1" as="geometry">
            <mxPoint x="380" y="320" as="sourcePoint" />
            <mxPoint x="430" y="270" as="targetPoint" />
          </mxGeometry>
        </mxCell>
        <mxCell id="o5Xl_phNg1nPOExyWUmS-10" value="Isi Data Rak Buku" style="ellipse;whiteSpace=wrap;html=1;" vertex="1" parent="1">
          <mxGeometry x="329" y="240" width="180" height="60" as="geometry" />
        </mxCell>
        <mxCell id="o5Xl_phNg1nPOExyWUmS-17" value="" style="endArrow=none;html=1;rounded=0;exitX=1;exitY=0.5;exitDx=0;exitDy=0;entryX=0;entryY=0.3333333333333333;entryDx=0;entryDy=0;entryPerimeter=0;" edge="1" parent="1" source="o5Xl_phNg1nPOExyWUmS-11" target="o5Xl_phNg1nPOExyWUmS-7">
          <mxGeometry width="50" height="50" relative="1" as="geometry">
            <mxPoint x="380" y="320" as="sourcePoint" />
            <mxPoint x="670" y="260" as="targetPoint" />
          </mxGeometry>
        </mxCell>
      </root>
    </mxGraphModel>
  </diagram>
</mxfile>
